<svg width="30" height="33" viewBox="0 0 30 33" fill="none" xmlns="http://www.w3.org/2000/svg">
<path d="M28.2 6H22.8V4.2C22.8 3.08609 22.3575 2.0178 21.5698 1.23015C20.7822 0.442499 19.7139 0 18.6 0H11.4C10.2861 0 9.2178 0.442499 8.43015 1.23015C7.6425 2.0178 7.2 3.08609 7.2 4.2V6H1.8C1.32261 6 0.864773 6.18964 0.527208 6.52721C0.189642 6.86477 0 7.32261 0 7.8C0 8.27739 0.189642 8.73523 0.527208 9.07279C0.864773 9.41036 1.32261 9.6 1.8 9.6H2.4V30C2.4 30.7957 2.71607 31.5587 3.27868 32.1213C3.84129 32.6839 4.60435 33 5.4 33H24.6C25.3956 33 26.1587 32.6839 26.7213 32.1213C27.2839 31.5587 27.6 30.7957 27.6 30V9.6H28.2C28.6774 9.6 29.1352 9.41036 29.4728 9.07279C29.8104 8.73523 30 8.27739 30 7.8C30 7.32261 29.8104 6.86477 29.4728 6.52721C29.1352 6.18964 28.6774 6 28.2 6ZM10.8 4.2C10.8 4.04087 10.8632 3.88826 10.9757 3.77574C11.0883 3.66321 11.2409 3.6 11.4 3.6H18.6C18.7591 3.6 18.9117 3.66321 19.0243 3.77574C19.1368 3.88826 19.2 4.04087 19.2 4.2V6H10.8V4.2ZM24 29.4H6V9.6H24V29.4ZM13.2 14.4V24C13.2 24.4774 13.0104 24.9352 12.6728 25.2728C12.3352 25.6104 11.8774 25.8 11.4 25.8C10.9226 25.8 10.4648 25.6104 10.1272 25.2728C9.78964 24.9352 9.6 24.4774 9.6 24V14.4C9.6 13.9226 9.78964 13.4648 10.1272 13.1272C10.4648 12.7896 10.9226 12.6 11.4 12.6C11.8774 12.6 12.3352 12.7896 12.6728 13.1272C13.0104 13.4648 13.2 13.9226 13.2 14.4ZM20.4 14.4V24C20.4 24.4774 20.2104 24.9352 19.8728 25.2728C19.5352 25.6104 19.0774 25.8 18.6 25.8C18.1226 25.8 17.6648 25.6104 17.3272 25.2728C16.9896 24.9352 16.8 24.4774 16.8 24V14.4C16.8 13.9226 16.9896 13.4648 17.3272 13.1272C17.6648 12.7896 18.1226 12.6 18.6 12.6C19.0774 12.6 19.5352 12.7896 19.8728 13.1272C20.2104 13.4648 20.4 13.9226 20.4 14.4Z" fill="black"/>
</svg>
