<?xml version="1.0" standalone="no"?>
<!DOCTYPE svg PUBLIC "-//W3C//DTD SVG 20010904//EN"
 "http://www.w3.org/TR/2001/REC-SVG-20010904/DTD/svg10.dtd">
<svg version="1.0" xmlns="http://www.w3.org/2000/svg"
 width="260.000000pt" height="260.000000pt" viewBox="0 0 260.000000 260.000000"
 preserveAspectRatio="xMidYMid meet">
<metadata>
Created by potrace 1.14, written by Peter Selinger 2001-2017
</metadata>
<g transform="translate(0.000000,260.000000) scale(0.100000,-0.100000)"
fill="#000000" stroke="none">
<path d="M760 2593 c-20 -8 -27 -17 -213 -251 -114 -142 -166 -201 -176 -197
-8 3 -66 40 -129 82 -106 71 -116 75 -155 70 -73 -10 -106 -74 -75 -143 17
-37 330 -245 380 -251 51 -7 66 7 219 199 150 189 142 179 195 243 99 120 114
165 71 218 -22 29 -83 44 -117 30z"/>
<path d="M1200 2200 l0 -100 700 0 700 0 0 100 0 100 -700 0 -700 0 0 -100z"/>
<path d="M740 1677 c-28 -27 -50 -52 -100 -117 -19 -25 -43 -54 -52 -65 -20
-25 -145 -181 -177 -224 -13 -17 -27 -31 -31 -31 -4 0 -58 34 -121 76 -140 94
-178 103 -227 54 -34 -33 -40 -67 -23 -113 14 -35 333 -248 382 -254 48 -7 62
4 149 113 39 49 79 98 88 109 9 11 40 49 67 83 28 35 83 104 123 154 75 93 88
121 78 162 -11 44 -39 68 -86 73 -38 4 -49 0 -70 -20z"/>
<path d="M1200 1300 l0 -100 700 0 700 0 0 100 0 100 -700 0 -700 0 0 -100z"/>
<path d="M755 788 c-26 -15 -28 -18 -103 -113 -34 -44 -78 -98 -96 -120 -18
-22 -57 -71 -87 -110 -67 -88 -85 -108 -96 -104 -4 2 -61 39 -127 83 -111 73
-121 78 -160 73 -70 -10 -105 -75 -74 -142 14 -31 325 -243 369 -252 39 -8 86
14 112 51 12 17 94 121 182 229 243 302 244 302 210 368 -24 45 -86 62 -130
37z"/>
<path d="M1200 400 l0 -100 700 0 700 0 0 100 0 100 -700 0 -700 0 0 -100z"/>
</g>
</svg>
